<?xml version="1.0" encoding="UTF-8" standalone="no"?>
<!-- Created with Inkscape (http://www.inkscape.org/) -->

<svg
   width="160mm"
   height="160mm"
   viewBox="0 0 160.00001 160"
   version="1.1"
   id="svg4253"
   inkscape:version="1.2.2 (732a01da63, 2022-12-09)"
   sodipodi:docname="icon.svg"
   xmlns:inkscape="http://www.inkscape.org/namespaces/inkscape"
   xmlns:sodipodi="http://sodipodi.sourceforge.net/DTD/sodipodi-0.dtd"
   xmlns="http://www.w3.org/2000/svg"
   xmlns:svg="http://www.w3.org/2000/svg">
  <sodipodi:namedview
     id="namedview4255"
     pagecolor="#ffffff"
     bordercolor="#000000"
     borderopacity="0.25"
     inkscape:showpageshadow="2"
     inkscape:pageopacity="0.0"
     inkscape:pagecheckerboard="0"
     inkscape:deskcolor="#d1d1d1"
     inkscape:document-units="mm"
     showgrid="false"
     inkscape:zoom="0.2102413"
     inkscape:cx="-744.38276"
     inkscape:cy="233.06553"
     inkscape:window-width="2240"
     inkscape:window-height="1294"
     inkscape:window-x="-11"
     inkscape:window-y="-11"
     inkscape:window-maximized="1"
     inkscape:current-layer="layer1" />
  <defs
     id="defs4250" />
  <g
     inkscape:label="图层 1"
     inkscape:groupmode="layer"
     id="layer1"
     transform="translate(-43.388957,-86.486623)">
    <path
       d="m 120.81375,95.734288 -1.44856,0.39037 -14.16362,8.230292 c -7.789988,4.55432 -14.903993,8.65321 -15.805317,9.10864 -4.442234,2.27715 -24.174736,14.02078 -25.397962,15.0943 l -1.416361,1.23616 -0.901324,1.85427 -0.901323,1.85425 v 32.85613 32.85613 l 0.901323,1.85425 0.901324,1.85426 1.416361,1.23617 c 1.223226,1.07352 20.955728,12.81714 25.397962,15.0943 0.901324,0.45544 8.015329,4.55432 15.805317,9.10864 l 14.16362,8.23029 1.77046,0.48796 1.77046,0.45543 2.02797,-0.35783 2.02797,-0.32531 7.14619,-4.16395 c 3.92719,-2.27715 10.78368,-6.24591 15.19372,-8.78332 26.46023,-15.22442 32.22225,-18.64016 33.47767,-19.74621 l 1.41636,-1.23617 0.90132,-1.85426 0.90132,-1.85425 V 166.3587 133.50257 l -0.90132,-1.85425 -0.90132,-1.85427 -1.41636,-1.23616 c -0.77257,-0.68315 -6.72773,-4.32661 -13.26232,-8.10018 -6.50239,-3.8061 -12.36098,-7.15678 -12.97259,-7.44955 -0.61161,-0.32531 -7.4359,-4.26154 -15.12933,-8.7508 l -14.00267,-8.132702 -1.60951,-0.422901 c -1.93141,-0.520493 -3.09025,-0.520493 -4.98946,0.03253 z m 5.34355,3.415736 c 0.70818,0.325308 6.11611,3.383196 11.97471,6.831466 5.85858,3.41575 10.75148,6.21339 10.81585,6.21339 0.0644,0 1.28761,0.71569 2.67178,1.59402 1.38417,0.87833 3.31558,1.98437 4.28128,2.50486 2.96149,1.52896 23.59531,13.53283 24.68978,14.37863 0.57942,0.4229 1.31979,1.39883 1.70607,2.14704 l 0.64381,1.39882 -0.0644,32.56335 -0.0966,32.53082 -0.96571,1.39882 -0.9657,1.3663 -10.30082,5.98567 c -5.66545,3.31815 -11.52404,6.66882 -13.00478,7.48209 -1.51294,0.81327 -8.88446,5.07481 -16.41694,9.46647 -7.50028,4.35913 -14.2602,8.23029 -14.96838,8.5556 -1.67388,0.78074 -3.8628,0.78074 -5.53669,0 -0.70818,-0.32531 -7.95095,-4.45671 -16.09503,-9.20622 -8.111895,-4.71697 -15.129323,-8.75079 -15.579985,-8.94597 -0.450662,-0.19519 -5.794211,-3.28562 -11.910325,-6.86401 l -11.105569,-6.47363 -0.965708,-1.3663 -0.965699,-1.39882 -0.09657,-32.53082 -0.06442,-32.56335 0.643805,-1.39882 c 0.386278,-0.74821 1.12665,-1.72414 1.706071,-2.14704 1.062275,-0.81327 22.919327,-13.59788 23.241229,-13.59788 0.09657,0 6.856478,-3.9037 15.032751,-8.6532 8.17628,-4.78204 15.45123,-8.945978 16.15941,-9.271286 1.67389,-0.78074 3.86281,-0.78074 5.53669,0 z"
       id="path10"
       style="display:inline;fill:#4fdb43;fill-opacity:1;stroke:#4fdb43;stroke-width:6.36141;stroke-dasharray:none;stroke-opacity:1" />
    <path
       d="m 132.12022,130.94422 c -0.17639,0.35278 -1.83444,0.74083 -3.84528,0.98778 -0.77611,0.0705 -2.04611,0.49389 -2.82222,0.91722 -0.81139,0.38806 -2.01083,0.81139 -2.68111,0.88195 l -1.23472,0.10583 -0.70556,0.77611 c -0.38806,0.42333 -1.02306,0.77611 -1.41111,0.77611 -0.77611,0.0353 -4.16278,1.5875 -4.33917,2.04611 -0.0705,0.14111 -0.28222,0.17639 -0.45861,0.0706 -0.14111,-0.10583 -0.98778,0.14111 -1.79917,0.59972 -0.84666,0.42333 -1.65805,0.74083 -1.79916,0.70556 -0.17639,-0.0353 -0.70556,0.21166 -1.16417,0.59972 -0.49389,0.38805 -1.48167,0.88194 -2.18722,1.12889 -0.70556,0.21166 -1.44639,0.56444 -1.65806,0.81139 -0.17639,0.21166 -0.9525,0.67027 -1.65805,1.05833 -0.70556,0.35278 -1.5875,0.91722 -1.94028,1.23472 -0.35278,0.3175 -0.84667,0.56445 -1.05833,0.59972 -0.24695,0.0353 -0.67028,0.0706 -0.88195,0.10584 -0.24694,0 -0.987777,0.52916 -1.587498,1.09361 -0.635,0.59972 -1.269999,1.05833 -1.411109,1.05833 -0.59972,0 -1.69333,0.45861 -2.11667,0.91722 l -0.45861,0.45862 v 1.76388 1.76389 l 0.91722,0.70556 0.9525,0.74083 h 1.48167 1.48167 l 3.139717,-2.2225 c 3.98639,-2.82222 6.35,-4.26861 7.83167,-4.7625 l 1.16416,-0.38805 0.14112,0.42333 c 0.17638,0.56444 0.49388,3.91583 0.74083,8.36083 l 0.21167,3.70417 -0.45862,2.82222 c -0.21166,1.55223 -0.45861,3.95111 -0.49388,5.32695 -0.0353,1.37583 -0.21167,2.71639 -0.35278,2.96333 -0.14111,0.24695 -0.3175,1.55222 -0.38806,2.89278 -0.0706,1.37583 -0.28222,2.99861 -0.49389,3.66889 -0.24694,0.67028 -0.3175,1.44639 -0.21166,1.72861 0.10583,0.28222 0.0353,0.59972 -0.17639,0.74083 -0.21167,0.10584 -0.3175,0.56445 -0.28223,0.9525 0.0706,0.81139 -0.17638,1.97556 -0.9525,4.33917 -0.49388,1.62278 -0.84666,4.83306 -1.09361,10.33639 -0.21166,4.26861 0.0706,6.42056 0.88195,7.44361 l 0.59972,0.74083 2.36361,0.21167 2.39889,0.21167 0.17639,-0.67028 c 0.14111,-0.38806 0.45861,-1.19944 0.77611,-1.79917 0.67028,-1.41111 0.84667,-3.4925 0.38806,-4.55083 -0.21167,-0.42333 -0.67028,-0.88194 -1.02306,-0.9525 l -0.67028,-0.17639 -0.0706,-1.02305 c -0.0353,-0.52917 -0.0353,-1.30528 -0.0353,-1.69334 0.0353,-0.38805 0.0706,-1.69333 0.14111,-2.92805 l 0.0706,-2.18723 h 0.81139 c 0.98777,0 2.61055,-0.70555 2.61055,-1.12889 0,-0.17638 0.14111,-0.24694 0.3175,-0.10583 0.21167,0.10583 0.49389,-0.0706 0.67028,-0.38805 0.17639,-0.3175 0.38805,-0.49389 0.45861,-0.42334 0.21167,0.17639 4.19806,-2.99861 4.19806,-3.35139 0,-0.14111 0.14111,-0.21166 0.3175,-0.10583 0.17638,0.10583 0.70555,-0.17639 1.19944,-0.635 0.49389,-0.45861 0.98778,-0.77611 1.09361,-0.67028 0.0706,0.10584 0.38806,-0.14111 0.635,-0.56444 0.24695,-0.42334 0.59972,-0.74084 0.81139,-0.74084 0.49389,0 4.90361,-4.55083 5.43278,-5.57388 0.24694,-0.42334 0.56444,-0.70556 0.74083,-0.59973 0.14111,0.10584 0.91722,-0.49389 1.69334,-1.30527 4.7625,-5.11528 10.16,-11.60639 10.795,-12.94695 0.21166,-0.49389 0.59972,-1.16417 0.88194,-1.44639 0.88195,-0.98778 3.63361,-5.46806 3.81,-6.17361 0.0706,-0.38806 0.17639,-0.88195 0.24695,-1.05833 0.0353,-0.21167 0.28222,-0.74084 0.56444,-1.23473 l 0.52917,-0.88194 v -5.3975 -5.43278 l -0.74084,-0.56444 c -0.38805,-0.35278 -0.74083,-0.70556 -0.77611,-0.88195 -0.17639,-0.70555 -1.19944,-2.39889 -1.37583,-2.2225 -0.10583,0.10583 -0.42333,-0.0353 -0.70556,-0.3175 -0.28222,-0.28222 -1.30527,-0.74083 -2.32833,-1.05833 l -1.83445,-0.52917 -5.89138,0.0353 c -3.24556,0 -5.99723,0.14111 -6.10306,0.28222 z m 10.05417,6.0325 c 0.88194,0.24695 1.905,0.56445 2.29305,0.70556 0.91722,0.35278 2.43417,3.35139 2.36361,4.72722 -0.0353,1.86972 -1.02305,5.15056 -1.76389,5.96194 -0.35277,0.42334 -0.77611,1.19945 -0.91722,1.72862 -0.10583,0.52916 -0.59972,1.37583 -1.09361,1.905 -0.49389,0.52916 -0.88194,1.12889 -0.88194,1.37583 0,0.24694 -0.21167,0.635 -0.49389,0.84667 -0.28222,0.24694 -0.59972,0.81139 -0.74084,1.34055 -0.10583,0.49389 -0.84666,1.44639 -1.5875,2.15195 -0.77611,0.67027 -1.41111,1.44639 -1.41111,1.72861 0,0.24694 -0.14111,0.45861 -0.3175,0.45861 -0.17639,0 -0.67027,0.56444 -1.12889,1.23472 -0.45861,0.67028 -0.98777,1.23472 -1.16416,1.23472 -0.42334,0 -1.97556,1.44639 -1.97556,1.83445 0,0.14111 -0.45861,0.70555 -0.98778,1.23472 -0.52916,0.56444 -2.75166,2.82222 -4.93889,5.11528 -2.18722,2.25778 -3.95111,4.02167 -3.95111,3.95111 0,-0.10583 -0.59972,0.38806 -1.30527,1.05833 -0.74084,0.70556 -1.48167,1.27 -1.65806,1.27 -0.17639,0 -0.635,0.35278 -1.05833,0.81139 -0.67028,0.70556 -1.62278,1.19945 -3.42195,1.76389 l -0.52916,0.17639 0.28222,-2.54 c 0.17639,-1.37583 0.45861,-3.35139 0.67028,-4.37444 0.21166,-1.05834 0.28222,-1.97556 0.17638,-2.08139 -0.10583,-0.14111 -0.0353,-0.42334 0.17639,-0.67028 l 0.38806,-0.49389 0.14111,-3.77472 c 0.0706,-2.11667 0.24694,-4.72723 0.42333,-5.82084 0.3175,-2.04611 0.3175,-2.61055 -0.10583,-9.45444 -0.10583,-2.2225 -0.24694,-4.65667 -0.24694,-5.3975 -0.0353,-0.70556 -0.17639,-1.30528 -0.3175,-1.30528 -0.17639,0 0.0706,-0.35278 0.49388,-0.81139 0.42334,-0.45861 0.81139,-0.77611 0.88195,-0.74083 0.24694,0.14111 4.16278,-1.69334 4.79778,-2.25778 0.35277,-0.35278 0.67027,-0.52917 0.70555,-0.45861 0.0706,0.24694 3.88056,-0.74083 4.97417,-1.30528 0.59972,-0.3175 1.48167,-0.52917 1.97556,-0.49389 0.52916,0.0353 1.62277,-0.21166 2.46944,-0.56444 l 1.55222,-0.67028 2.82222,0.10583 c 1.55223,0.0353 3.52778,0.24695 4.40973,0.49389 z"
       id="path116"
       style="display:inline;stroke-width:2.035;fill:#29e119;fill-opacity:1;stroke-dasharray:none;stroke:#4fdb43;stroke-opacity:1" />
  </g>
</svg>
