<?xml version="1.0" encoding="UTF-8" standalone="no"?>
<!-- Created with Inkscape (http://www.inkscape.org/) -->

<svg
   width="160mm"
   height="160mm"
   viewBox="0 0 160.00001 160"
   version="1.1"
   id="svg4253"
   inkscape:version="1.2.2 (732a01da63, 2022-12-09)"
   sodipodi:docname="proxy_off.svg"
   xmlns:inkscape="http://www.inkscape.org/namespaces/inkscape"
   xmlns:sodipodi="http://sodipodi.sourceforge.net/DTD/sodipodi-0.dtd"
   xmlns="http://www.w3.org/2000/svg"
   xmlns:svg="http://www.w3.org/2000/svg">
  <sodipodi:namedview
     id="namedview4255"
     pagecolor="#ffffff"
     bordercolor="#000000"
     borderopacity="0.25"
     inkscape:showpageshadow="2"
     inkscape:pageopacity="0.0"
     inkscape:pagecheckerboard="0"
     inkscape:deskcolor="#d1d1d1"
     inkscape:document-units="mm"
     showgrid="false"
     inkscape:zoom="0.2102413"
     inkscape:cx="-615.95889"
     inkscape:cy="233.06553"
     inkscape:window-width="2240"
     inkscape:window-height="1294"
     inkscape:window-x="-11"
     inkscape:window-y="-11"
     inkscape:window-maximized="1"
     inkscape:current-layer="layer1" />
  <defs
     id="defs4250" />
  <g
     inkscape:label="图层 1"
     inkscape:groupmode="layer"
     id="layer1"
     transform="translate(-43.388957,-86.486623)">
    <g
       id="g4303"
       transform="translate(11.384714,2.8849265)">
      <path
         d="m 109.18202,86.940925 -1.5875,0.423333 -15.522223,8.925279 c -8.53722,4.938893 -16.33361,9.383893 -17.32139,9.877783 -4.86834,2.46944 -26.49361,15.20472 -27.83417,16.36889 l -1.55222,1.34055 -0.98778,2.01084 -0.98778,2.01083 v 35.63056 35.63056 l 0.98778,2.01083 0.98778,2.01083 1.55222,1.34056 c 1.34056,1.16417 22.96583,13.89944 27.83417,16.36889 0.98778,0.49389 8.78417,4.93889 17.32139,9.87778 l 15.522223,8.92528 1.94028,0.52916 1.94028,0.49389 2.2225,-0.38805 2.2225,-0.35278 7.83166,-4.51556 c 4.30389,-2.46944 11.81806,-6.77333 16.65112,-9.525 28.99833,-16.51 35.31305,-20.21417 36.68889,-21.41361 l 1.55222,-1.34056 0.98778,-2.01083 0.98778,-2.01083 v -35.63056 -35.63056 l -0.98778,-2.01083 -0.98778,-2.01084 -1.55222,-1.34055 c -0.84667,-0.74084 -7.37306,-4.69195 -14.53445,-8.78417 -7.12611,-4.1275 -13.54667,-7.76111 -14.21694,-8.07861 -0.67028,-0.35278 -8.14917,-4.62139 -16.58056,-9.489723 l -15.34583,-8.819449 -1.76389,-0.458611 c -2.11667,-0.564445 -3.38667,-0.564445 -5.46806,0.03528 z m 5.85611,3.704167 c 0.77611,0.352777 6.70278,3.668885 13.12334,7.408335 6.42055,3.704173 11.78278,6.738053 11.85333,6.738053 0.0706,0 1.41111,0.77612 2.92806,1.72862 1.51694,0.9525 3.63361,2.15194 4.69194,2.71638 3.24556,1.65806 25.85861,14.67556 27.05806,15.59278 0.635,0.45861 1.44639,1.51695 1.86972,2.32834 l 0.70556,1.51694 -0.0706,35.31306 -0.10583,35.27778 -1.05834,1.51694 -1.05833,1.48167 -11.28889,6.49111 c -6.20889,3.59834 -12.62944,7.23195 -14.25222,8.11389 -1.65806,0.88195 -9.73667,5.50334 -17.99167,10.26584 -8.21972,4.72722 -15.62806,8.92527 -16.40417,9.27805 -1.83444,0.84667 -4.23333,0.84667 -6.06778,0 -0.77611,-0.35278 -8.71361,-4.83305 -17.638893,-9.98361 -8.89,-5.11528 -16.58055,-9.48972 -17.07444,-9.70139 -0.49389,-0.21167 -6.35,-3.56306 -13.05278,-7.44361 l -12.17083,-7.02028 -1.05834,-1.48167 -1.05833,-1.51694 -0.10583,-35.27778 -0.0706,-35.31306 0.70556,-1.51694 c 0.42333,-0.81139 1.23472,-1.86973 1.86972,-2.32834 1.16417,-0.88194 25.11778,-14.74611 25.47056,-14.74611 0.10583,0 7.51416,-4.23333 16.47472,-9.38389 8.960563,-5.185833 16.933333,-9.701391 17.709443,-10.054168 1.83445,-0.846667 4.23334,-0.846667 6.06778,0 z"
         id="path10"
         style="display:inline;stroke-width:0.0352778" />
      <path
         d="m 120.73551,128.05929 c -0.17639,0.35278 -1.83444,0.74083 -3.84528,0.98778 -0.77611,0.0705 -2.04611,0.49389 -2.82222,0.91722 -0.81139,0.38806 -2.01083,0.81139 -2.68111,0.88195 l -1.23472,0.10583 -0.70556,0.77611 c -0.38806,0.42333 -1.02306,0.77611 -1.41111,0.77611 -0.77611,0.0353 -4.16278,1.5875 -4.33917,2.04611 -0.0705,0.14111 -0.28222,0.17639 -0.45861,0.0706 -0.14111,-0.10583 -0.98778,0.14111 -1.79917,0.59972 -0.84666,0.42333 -1.658051,0.74083 -1.799161,0.70556 -0.17639,-0.0353 -0.70556,0.21166 -1.16417,0.59972 -0.49389,0.38805 -1.48167,0.88194 -2.18722,1.12889 -0.70556,0.21166 -1.44639,0.56444 -1.65806,0.81139 -0.17639,0.21166 -0.9525,0.67027 -1.65805,1.05833 -0.70556,0.35278 -1.5875,0.91722 -1.94028,1.23472 -0.35278,0.3175 -0.84667,0.56445 -1.058331,0.59972 -0.24695,0.0353 -0.670279,0.0706 -0.881949,0.10584 -0.24694,0 -0.98778,0.52916 -1.587501,1.09361 -0.635,0.59972 -1.269999,1.05833 -1.411109,1.05833 -0.59972,0 -1.69333,0.45861 -2.11667,0.91722 l -0.45861,0.45862 v 1.76388 1.76389 l 0.91722,0.70556 0.9525,0.74083 h 1.48167 1.48167 l 3.13972,-2.2225 c 3.98639,-2.82222 6.35,-4.26861 7.83167,-4.7625 l 1.164161,-0.38805 0.14112,0.42333 c 0.17638,0.56444 0.49388,3.91583 0.74083,8.36083 l 0.21167,3.70417 -0.45862,2.82222 c -0.21166,1.55223 -0.45861,3.95111 -0.49388,5.32695 -0.0353,1.37583 -0.21167,2.71639 -0.35278,2.96333 -0.14111,0.24695 -0.317501,1.55222 -0.388061,2.89278 -0.0706,1.37583 -0.28222,2.99861 -0.49389,3.66889 -0.24694,0.67028 -0.3175,1.44639 -0.21166,1.72861 0.10583,0.28222 0.0353,0.59972 -0.17639,0.74083 -0.21167,0.10584 -0.3175,0.56445 -0.28223,0.9525 0.0706,0.81139 -0.17638,1.97556 -0.9525,4.33917 -0.49388,1.62278 -0.84666,4.83306 -1.09361,10.33639 -0.21166,4.26861 0.0706,6.42056 0.88195,7.44361 l 0.59972,0.74083 2.363611,0.21167 2.39889,0.21167 0.17639,-0.67028 c 0.14111,-0.38806 0.45861,-1.19944 0.77611,-1.79917 0.67028,-1.41111 0.84667,-3.4925 0.38806,-4.55083 -0.21167,-0.42333 -0.67028,-0.88194 -1.02306,-0.9525 l -0.67028,-0.17639 -0.0706,-1.02305 c -0.0353,-0.52917 -0.0353,-1.30528 -0.0353,-1.69334 0.0353,-0.38805 0.0706,-1.69333 0.14111,-2.92805 l 0.0706,-2.18723 h 0.81139 c 0.98777,0 2.61055,-0.70555 2.61055,-1.12889 0,-0.17638 0.14111,-0.24694 0.3175,-0.10583 0.21167,0.10583 0.49389,-0.0706 0.67028,-0.38805 0.17639,-0.3175 0.38805,-0.49389 0.45861,-0.42334 0.21167,0.17639 4.19806,-2.99861 4.19806,-3.35139 0,-0.14111 0.14111,-0.21166 0.3175,-0.10583 0.17638,0.10583 0.70555,-0.17639 1.19944,-0.635 0.49389,-0.45861 0.98778,-0.77611 1.09361,-0.67028 0.0706,0.10584 0.38806,-0.14111 0.635,-0.56444 0.24695,-0.42334 0.59972,-0.74084 0.81139,-0.74084 0.49389,0 4.90361,-4.55083 5.43278,-5.57388 0.24694,-0.42334 0.56444,-0.70556 0.74083,-0.59973 0.14111,0.10584 0.91722,-0.49389 1.69334,-1.30527 4.7625,-5.11528 10.16,-11.60639 10.795,-12.94695 0.21166,-0.49389 0.59972,-1.16417 0.88194,-1.44639 0.88195,-0.98778 3.63361,-5.46806 3.81,-6.17361 0.0706,-0.38806 0.17639,-0.88195 0.24695,-1.05833 0.0353,-0.21167 0.28222,-0.74084 0.56444,-1.23473 l 0.52917,-0.88194 v -5.3975 -5.43278 l -0.74084,-0.56444 c -0.38805,-0.35278 -0.74083,-0.70556 -0.77611,-0.88195 -0.17639,-0.70555 -1.19944,-2.39889 -1.37583,-2.2225 -0.10583,0.10583 -0.42333,-0.0353 -0.70556,-0.3175 -0.28222,-0.28222 -1.30527,-0.74083 -2.32833,-1.05833 l -1.83445,-0.52917 -5.89138,0.0353 c -3.24556,0 -5.99723,0.14111 -6.10306,0.28222 z m 10.05417,6.0325 c 0.88194,0.24695 1.905,0.56445 2.29305,0.70556 0.91722,0.35278 2.43417,3.35139 2.36361,4.72722 -0.0353,1.86972 -1.02305,5.15056 -1.76389,5.96194 -0.35277,0.42334 -0.77611,1.19945 -0.91722,1.72862 -0.10583,0.52916 -0.59972,1.37583 -1.09361,1.905 -0.49389,0.52916 -0.88194,1.12889 -0.88194,1.37583 0,0.24694 -0.21167,0.635 -0.49389,0.84667 -0.28222,0.24694 -0.59972,0.81139 -0.74084,1.34055 -0.10583,0.49389 -0.84666,1.44639 -1.5875,2.15195 -0.77611,0.67027 -1.41111,1.44639 -1.41111,1.72861 0,0.24694 -0.14111,0.45861 -0.3175,0.45861 -0.17639,0 -0.67027,0.56444 -1.12889,1.23472 -0.45861,0.67028 -0.98777,1.23472 -1.16416,1.23472 -0.42334,0 -1.97556,1.44639 -1.97556,1.83445 0,0.14111 -0.45861,0.70555 -0.98778,1.23472 -0.52916,0.56444 -2.75166,2.82222 -4.93889,5.11528 -2.18722,2.25778 -3.95111,4.02167 -3.95111,3.95111 0,-0.10583 -0.59972,0.38806 -1.30527,1.05833 -0.74084,0.70556 -1.48167,1.27 -1.65806,1.27 -0.17639,0 -0.635,0.35278 -1.05833,0.81139 -0.67028,0.70556 -1.62278,1.19945 -3.42195,1.76389 l -0.52916,0.17639 0.28222,-2.54 c 0.17639,-1.37583 0.45861,-3.35139 0.67028,-4.37444 0.21166,-1.05834 0.28222,-1.97556 0.17638,-2.08139 -0.10583,-0.14111 -0.0353,-0.42334 0.17639,-0.67028 l 0.38806,-0.49389 0.14111,-3.77472 c 0.0706,-2.11667 0.24694,-4.72723 0.42333,-5.82084 0.3175,-2.04611 0.3175,-2.61055 -0.10583,-9.45444 -0.10583,-2.2225 -0.24694,-4.65667 -0.24694,-5.3975 -0.0353,-0.70556 -0.17639,-1.30528 -0.3175,-1.30528 -0.17639,0 0.0706,-0.35278 0.49388,-0.81139 0.42334,-0.45861 0.81139,-0.77611 0.88195,-0.74083 0.24694,0.14111 4.16278,-1.69334 4.79778,-2.25778 0.35277,-0.35278 0.67027,-0.52917 0.70555,-0.45861 0.0706,0.24694 3.88056,-0.74083 4.97417,-1.30528 0.59972,-0.3175 1.48167,-0.52917 1.97556,-0.49389 0.52916,0.0353 1.62277,-0.21166 2.46944,-0.56444 l 1.55222,-0.67028 2.82222,0.10583 c 1.55223,0.0353 3.52778,0.24695 4.40973,0.49389 z"
         id="path116"
         style="display:inline;stroke-width:0.0352778" />
    </g>
  </g>
</svg>
